# xmcd
#
# Track frame offsets:
#	150
#	12715
#	23703
#	34791
#	46075
#	57974
#	68820
#	81099
#	93239
#	104153
#	114783
#	125741
#	137416
#	147658
#	160020
#	171039
#	182002
#	192544
#	203247
#	215419
#	226904
#	236433
#	249992
#	260889
#	271059
#	280282
#	289564
#	301423
#	310317
#	321576
#	332787
#	342858
#
# Disc length: 4718 seconds
#
# Revision: 0
# Processed by: cddbd v1.5.2PL0 Copyright (c) Steve Scherf et al.
# Submitted via: EasyCDDAExtractor 15.3.0.1
#
DISCID=db126c20
DTITLE=Wills Bob - Faded Love Cd 7
DYEAR=1900
DGENRE=
TTITLE0=Convict And The Rose (1961)
TTITLE1=My Confession (1961)
TTITLE2=Silver Bell (1961)
TTITLE3=Playboy Medley (1961)
TTITLE4=Right Or Wrong (1961)
TTITLE5=It Makes No Difference Now (1961)
TTITLE6=Trouble In Mind (1961)
TTITLE7=Wabash Blues (1961)
TTITLE8=I Wonder If You Feel The Way I Do (1961)
TTITLE9=Li'l Liza Jane (1961)
TTITLE10=Hang Your Head In Shame (1961)
TTITLE11=Nancy Jane (2005)
TTITLE12=After All (1961)
TTITLE13=Cryin' Won't Make Me Stay (1993)
TTITLE14=Dry Your Darling's Eyes (2005)
TTITLE15=It May Be Too Late (1961)
TTITLE16=Oklahoma Gals (1961)
TTITLE17=I'm Cryin' My Heart Out (1961)
TTITLE18=Tomorrow I'll Cry (1961)
TTITLE19=Siesta (1961)
TTITLE20=Snow Deer (1961)
TTITLE21=Mississippi River Blues (1961)
TTITLE22=Deep Water (1961)
TTITLE23=Blues For Dixie (1961)
TTITLE24=Bubbles In My Beer (1961)
TTITLE25=Tie Me To Your Apron Strings Again (1961)
TTITLE26=Good Ole Oklahoma (1961)
TTITLE27=Roly Poly (1961)
TTITLE28=Jobob Rag (1961)
TTITLE29=Jobob Rag (1961)
TTITLE30=Cindy (1961)
TTITLE31=She's Killin' Me (1993)
EXTD=
EXTT0=
EXTT1=
EXTT2=
EXTT3=
EXTT4=
EXTT5=
EXTT6=
EXTT7=
EXTT8=
EXTT9=
EXTT10=
EXTT11=
EXTT12=
EXTT13=
EXTT14=
EXTT15=
EXTT16=
EXTT17=
EXTT18=
EXTT19=
EXTT20=
EXTT21=
EXTT22=
EXTT23=
EXTT24=
EXTT25=
EXTT26=
EXTT27=
EXTT28=
EXTT29=
EXTT30=
EXTT31=
PLAYORDER=
